<svg width="18" height="19" viewBox="0 0 18 19" fill="none" xmlns="http://www.w3.org/2000/svg">
<g clip-path="url(#clip0)">
<path d="M3.31836 13.229V18.8761H12.4242C12.4242 17.8824 12.4242 13.7743 12.4242 13.229C10.6467 13.229 5.10717 13.229 3.31836 13.229ZM5.89483 16.6525H4.76542V15.5937H5.89483V16.6525ZM10.9772 16.6525H9.84777V15.5937H10.9772V16.6525ZM8.43601 16.6525H7.3066V15.5937H8.43601V16.6525Z" fill="#040205"/>
<path d="M9.31738 7.87641V12.1699H13.4821V18.8758H15.7409C15.7409 17.9065 15.7409 4.58813 15.7409 4.15747C13.5246 5.44055 12.9753 5.75848 9.31738 7.87641V7.87641ZM11.5409 10.4052V9.34641H13.5174V10.4052H11.5409Z" fill="#040205"/>
<path d="M10.7294 0.875977V3.69951H7.27059V0.875977H0V18.876H2.25882C2.25882 18.5798 2.25882 12.5138 2.25882 12.1701H7.27059V4.75833H10.7294V5.83586C15.3858 3.14147 4.61245 9.37717 16.8 2.32127V18.876H18V0.875977H10.7294ZM5.04706 10.9701H2.22353V9.91127H5.04706V10.9701ZM5.04706 8.71127H2.22353V7.65245H5.04706V8.71127ZM5.04706 6.45245H2.22353V5.39362H5.04706V6.45245ZM5.04706 4.19362H2.22353V3.1348H5.04706V4.19362Z" fill="#040205"/>
</g>
<defs>
<clipPath id="clip0">
<rect width="18" height="18" fill="white" transform="translate(0 0.875977)"/>
</clipPath>
</defs>
</svg>
