<svg width="51" height="49" viewBox="0 0 51 49" fill="none" xmlns="http://www.w3.org/2000/svg">
<path d="M38.1621 36.9143C34.9395 36.9143 32.2822 39.515 32.2822 42.7942C32.2822 46.0168 34.8829 48.674 38.1621 48.674C41.3847 48.674 44.0419 46.0733 44.0419 42.7942C43.9854 39.5715 41.3847 36.9143 38.1621 36.9143Z" fill="#040205"/>
<path d="M48.5088 8.87195C48.3957 8.87195 48.2261 8.81541 48.0565 8.81541H12.4382L11.8728 5.02743C11.5336 2.5398 9.38516 0.674072 6.84099 0.674072H2.26148C1.01767 0.674072 0 1.69174 0 2.93556C0 4.17937 1.01767 5.19704 2.26148 5.19704H6.84099C7.12367 5.19704 7.34982 5.42319 7.40636 5.70587L10.9117 29.5645C11.364 32.561 13.9647 34.8225 17.0177 34.8225H40.5371C43.477 34.8225 46.0212 32.7306 46.6431 29.8472L50.318 11.4727C50.5442 10.2854 49.7526 9.0981 48.5088 8.87195Z" fill="#040205"/>
<path d="M23.7464 42.5115C23.6333 39.4019 21.0326 36.9143 17.923 36.9143C14.6439 37.0839 12.1563 39.7977 12.2693 43.0203C12.3824 46.1299 14.9266 48.6175 18.0361 48.6175H18.1492C21.3718 48.4479 23.916 45.7341 23.7464 42.5115Z" fill="#040205"/>
</svg>
