<svg width="24" height="25" viewBox="0 0 24 25" fill="none" xmlns="http://www.w3.org/2000/svg">
<path d="M19.965 8.97852C19.988 8.80452 20 8.63052 20 8.45752C20 6.07852 17.857 4.16952 15.479 4.49252C14.786 3.25952 13.466 2.45752 12 2.45752C10.534 2.45752 9.214 3.25952 8.521 4.49252C6.138 4.16952 4 6.07852 4 8.45752C4 8.63052 4.012 8.80452 4.035 8.97852C2.802 9.67252 2 10.9925 2 12.4575C2 13.9225 2.802 15.2425 4.035 15.9365C4.01193 16.1092 4.00024 16.2833 4 16.4575C4 18.8365 6.138 20.7405 8.521 20.4225C9.214 21.6555 10.534 22.4575 12 22.4575C13.466 22.4575 14.786 21.6555 15.479 20.4225C17.857 20.7405 20 18.8365 20 16.4575C20 16.2845 19.988 16.1105 19.965 15.9365C21.198 15.2425 22 13.9225 22 12.4575C22 10.9925 21.198 9.67252 19.965 8.97852ZM10.955 16.8735L7.288 13.1595L8.712 11.7555L10.969 14.0415L15.296 9.74752L16.704 11.1675L10.955 16.8735Z" fill="#F33D3D"/>
</svg>
