<svg width="19" height="19" viewBox="0 0 19 19" fill="none" xmlns="http://www.w3.org/2000/svg">
<g clip-path="url(#clip0)">
<path d="M13.7849 13.3816C13.7849 12.8508 13.7849 12.3867 13.7849 11.898C12.8554 11.898 11.9505 11.898 11.0245 11.898C11.0245 12.4654 11.0245 13.023 11.0245 13.6235C11.5019 13.6235 11.9744 13.6235 12.5186 13.6235C11.4681 15.1992 10.4605 16.7109 9.41992 18.2712C8.37859 16.7095 7.37102 15.1978 6.32687 13.6319C6.85844 13.6319 7.32109 13.6319 7.80906 13.6319C7.80906 13.0455 7.80906 12.4894 7.80906 11.9149C6.89852 11.9149 5.98375 11.9149 5.02469 11.9149C5.02469 12.4141 5.02469 12.8761 5.02469 13.4196C3.46445 12.3719 1.97312 11.3707 0.419922 10.3279C1.95203 9.29717 3.44828 8.29029 5.005 7.24334C5.005 7.76084 5.005 8.21857 5.005 8.70865C7.94617 8.70865 10.8416 8.70865 13.7751 8.70865C13.7751 8.20803 13.7751 7.73623 13.7751 7.19482C15.3487 8.24248 16.8639 9.25217 18.4234 10.2907C16.878 11.3201 15.3641 12.329 13.7849 13.3816Z" fill="#040205"/>
<path d="M6.75 7.64212C6.78797 6.8961 6.74227 6.14868 6.88219 5.43712C7.08117 4.42462 7.7857 3.80516 8.76937 3.50985C8.85445 3.48454 8.94023 3.46063 9.05695 3.42688C8.09227 2.9818 7.69781 2.31876 7.87781 1.48907C8.02758 0.799304 8.68219 0.276179 9.4057 0.270554C10.1299 0.264929 10.7909 0.770476 10.9582 1.46024C11.16 2.28782 10.7691 2.9593 9.78398 3.4304C9.9 3.46344 9.98508 3.48876 10.0709 3.51126C11.1705 3.80094 11.9602 4.7143 12.0361 5.84774C12.0755 6.43907 12.0431 7.03532 12.0431 7.64141C10.286 7.64212 8.55633 7.64212 6.75 7.64212Z" fill="#040205"/>
</g>
<defs>
<clipPath id="clip0">
<rect width="18.0035" height="18" fill="white" transform="translate(0.421875 0.270508)"/>
</clipPath>
</defs>
</svg>
