<svg width="17" height="17" viewBox="0 0 17 17" fill="none" xmlns="http://www.w3.org/2000/svg">
<g clip-path="url(#clip0)">
<path d="M7.13557 8.50989C7.06613 8.4405 6.98623 8.40576 6.89597 8.40576C6.80566 8.40576 6.72576 8.44046 6.65636 8.50989L3.198 11.9682L1.69801 10.4681C1.56604 10.3364 1.40995 10.2703 1.22927 10.2703C1.0486 10.2703 0.89233 10.3364 0.760398 10.4681C0.62843 10.6002 0.5625 10.7565 0.5625 10.9371V15.6038C0.5625 15.7843 0.62843 15.9405 0.760398 16.0725C0.892439 16.2044 1.04871 16.2704 1.22927 16.2704H5.896C6.07657 16.2704 6.23277 16.2044 6.36473 16.0725C6.49663 15.9406 6.56263 15.7844 6.56263 15.6038C6.56263 15.4232 6.49663 15.2669 6.36473 15.1348L4.86474 13.6351L8.3231 10.1766C8.3925 10.1071 8.42719 10.0275 8.42719 9.93706C8.42719 9.84665 8.39242 9.76704 8.3231 9.69735L7.13557 8.50989Z" fill="#040205"/>
<path d="M16.3642 0.468406C16.2323 0.336437 16.076 0.270508 15.8954 0.270508H11.2287C11.0481 0.270508 10.892 0.336437 10.7599 0.468406C10.6281 0.600301 10.5622 0.756569 10.5622 0.937136C10.5622 1.1177 10.6281 1.27401 10.7599 1.40587L12.2597 2.90586L8.80139 6.36423C8.73204 6.43377 8.69727 6.51356 8.69727 6.60383C8.69727 6.69409 8.73204 6.77403 8.80139 6.84343L9.98907 8.03096C10.0585 8.10039 10.1382 8.13505 10.2285 8.13505C10.3189 8.13505 10.3986 8.10039 10.468 8.03096L13.9266 4.5726L15.4263 6.07249C15.5584 6.20442 15.7147 6.27053 15.8953 6.27053C16.0758 6.27053 16.232 6.20442 16.364 6.07249C16.4959 5.94063 16.5618 5.78432 16.5618 5.60376V0.937027C16.5619 0.756314 16.4964 0.600338 16.3642 0.468406Z" fill="#040205"/>
</g>
<defs>
<clipPath id="clip0">
<rect width="16" height="16" fill="white" transform="translate(0.5625 0.270508)"/>
</clipPath>
</defs>
</svg>
