<svg width="87" height="83" viewBox="0 0 87 83" fill="none" xmlns="http://www.w3.org/2000/svg">
<path d="M31.8975 49.9233C31.8975 50.7171 32.5466 51.3609 33.3469 51.3609H39.1465C39.9468 51.3609 40.5959 50.7171 40.5959 49.9233V41.2943C40.5959 40.5005 39.9468 39.8567 39.1465 39.8567H33.3469C32.5466 39.8567 31.8975 40.5005 31.8975 41.2943V49.9233ZM34.7981 42.7319H37.6987V48.484H34.7981V42.7319Z" fill="#FCA804"/>
<path d="M33.3489 34.9456H39.1484C39.9488 34.9456 40.5979 34.3018 40.5979 33.508V24.879C40.5979 24.0852 39.9488 23.4414 39.1484 23.4414H33.3489C32.5485 23.4414 31.8994 24.0852 31.8994 24.879V33.508C31.8977 34.3018 32.5485 34.9456 33.3489 34.9456ZM34.7983 26.3166H37.699V32.0687H34.7983V26.3166Z" fill="#FCA804"/>
<path d="M43.579 8.8396L12.5064 30.803C11.8199 31.2109 11.5973 32.094 12.0103 32.7766C12.4198 33.4575 13.3136 33.6782 14.0001 33.2687L43.4991 12.3418L72.9998 33.2687C73.2326 33.4086 73.4909 33.4743 73.7458 33.4743C74.2386 33.4743 74.7195 33.2249 74.9896 32.7766C75.4026 32.0957 75.18 31.2126 74.4935 30.803L43.5892 8.8396H43.579Z" fill="#034165"/>
<path d="M43.579 0L12.5064 21.9634C11.8199 22.3713 11.5973 23.2544 12.0103 23.937C12.4198 24.6179 13.3136 24.8386 14.0001 24.4291L43.4991 3.50215L72.9998 24.4274C73.2326 24.5673 73.4909 24.633 73.7458 24.633C74.2386 24.633 74.7195 24.3836 74.9896 23.9353C75.4026 23.2544 75.18 22.3713 74.4935 21.9618L43.5892 0H43.579Z" fill="#034165"/>
<path d="M0 77.2479H87C87 75.9654 87 76.6041 87 75.8103C87 75.0165 87 75.7547 87 74.3727H55.0999V59.9917H56.5494C57.3498 59.9917 57.9989 59.3479 57.9989 58.5541C57.9989 57.7603 57.3498 57.1165 56.5494 57.1165H30.4489C29.6485 57.1165 28.9994 57.7603 28.9994 58.5541C28.9994 59.3479 29.6485 59.9917 30.4489 59.9917H31.8984V74.3727H0C0 75.78 0 75.0165 0 75.8103C0 76.6041 0 75.7227 0 77.2479ZM44.9486 65.7421V59.99H52.1993V74.371H44.9486V68.619V65.7421ZM42.0497 68.619V74.371H34.799V59.99H42.0497V65.7421" fill="#034165"/>
<path d="M76.8506 58.5522H71.051C70.2507 58.5522 69.6016 59.196 69.6016 59.9898V68.6188C69.6016 69.4126 70.2507 70.0564 71.051 70.0564H76.8506C77.6509 70.0564 78.3 69.4126 78.3 68.6188V59.9898C78.3 59.196 77.6509 58.5522 76.8506 58.5522ZM75.3994 67.1812H72.4988V61.4291H75.3994V67.1812Z" fill="#FCA804"/>
<path d="M76.8506 41.2944H71.051C70.2507 41.2944 69.6016 41.9382 69.6016 42.732V51.361C69.6016 52.1548 70.2507 52.7986 71.051 52.7986H76.8506C77.6509 52.7986 78.3 52.1548 78.3 51.361V42.732C78.3 41.9382 77.6509 41.2944 76.8506 41.2944ZM75.3994 49.9234H72.4988V44.1713H75.3994V49.9234Z" fill="#FCA804"/>
<path d="M87 80.1248H0C0 81.7005 0 80.7685 0 81.5623C0 82.3561 0 81.2961 0 82.9999H87C87 80.8882 87 82.3561 87 81.5623C87 80.7685 87 82.946 87 80.1248Z" fill="#034165"/>
<path d="M84.0981 31.2261H61.3994C60.628 31.2261 61.4504 31.8042 61.3994 32.5676C61.3434 33.4053 60.5668 34.103 61.3994 34.103H84.0981V81.9062C87.0038 81.9062 84.0981 81.9062 86.9987 81.9062V31.1755" fill="#034165"/>
<path d="M46.3994 49.9233C46.3994 50.7171 47.0485 51.3609 47.8489 51.3609H53.6484C54.4488 51.3609 55.0979 50.7171 55.0979 49.9233V41.2943C55.0979 40.5005 54.4488 39.8567 53.6484 39.8567H47.8489C47.0485 39.8567 46.3994 40.5005 46.3994 41.2943V49.9233ZM49.2983 42.7319H52.199V48.484H49.2983V42.7319Z" fill="#FCA804"/>
<path d="M60.8984 31.2732V74.4181C60.8984 75.2119 61.5476 75.8557 62.3479 75.8557C63.1482 75.8557 63.7974 75.2119 63.7974 74.4181V31.2732" fill="#034165"/>
<path d="M15.9863 58.5522H10.1868C9.38642 58.5522 8.7373 59.196 8.7373 59.9898V68.6188C8.7373 69.4126 9.38642 70.0564 10.1868 70.0564H15.9863C16.7867 70.0564 17.4358 69.4126 17.4358 68.6188V59.9898C17.4358 59.196 16.7867 58.5522 15.9863 58.5522ZM14.5369 67.1812H11.6362V61.4291H14.5369V67.1812Z" fill="#FCA804"/>
<path d="M15.9863 41.2944H10.1868C9.38642 41.2944 8.7373 41.9382 8.7373 42.732V51.361C8.7373 52.1548 9.38642 52.7986 10.1868 52.7986H15.9863C16.7867 52.7986 17.4358 52.1548 17.4358 51.361V42.732C17.4358 41.9382 16.7867 41.2944 15.9863 41.2944ZM14.5369 49.9234H11.6362V44.1713H14.5369V49.9234Z" fill="#FCA804"/>
<path d="M2.93187 31.2261H25.6305C26.4019 31.2261 25.5795 31.8042 25.6305 32.5676C25.6866 33.4053 26.4631 34.103 25.6305 34.103H2.93187V81.9062C0.0261521 81.9062 2.93187 81.9062 0.03125 81.9062V31.1755" fill="#034165"/>
<path d="M23.1143 31.2732V74.4181C23.1143 75.2119 23.7634 75.8557 24.5637 75.8557C25.3641 75.8557 26.0132 75.2119 26.0132 74.4181V31.2732" fill="#034165"/>
<path d="M47.8489 34.9456H53.6484C54.4488 34.9456 55.0979 34.3018 55.0979 33.508V24.879C55.0979 24.0852 54.4488 23.4414 53.6484 23.4414H47.8489C47.0485 23.4414 46.3994 24.0852 46.3994 24.879V33.508C46.3994 34.3018 47.0485 34.9456 47.8489 34.9456ZM49.2983 26.3166H52.199V32.0687H49.2983V26.3166Z" fill="#FCA804"/>
</svg>
