<svg width="19" height="19" viewBox="0 0 19 19" fill="none" xmlns="http://www.w3.org/2000/svg">
<path d="M14.2781 0.17041C12.0828 0.17041 10.2969 1.95629 10.2969 4.15166C10.2969 6.19461 13.491 9.813 13.855 10.2191C13.963 10.3385 14.1166 10.4079 14.2781 10.4079C14.4397 10.4079 14.5932 10.3385 14.7013 10.2191C15.0653 9.813 18.2594 6.19461 18.2594 4.15166C18.2594 1.95629 16.4735 0.17041 14.2781 0.17041ZM14.2781 5.85791C13.3363 5.85791 12.5719 5.09351 12.5719 4.15166C12.5719 3.20981 13.3363 2.44541 14.2781 2.44541C15.22 2.44541 15.9844 3.20981 15.9844 4.15166C15.9844 5.09351 15.22 5.85791 14.2781 5.85791Z" fill="#040205"/>
<path d="M0.415769 6.85213C0.200781 6.93858 0.0585938 7.14788 0.0585938 7.38107V17.8017C0.0585938 17.9905 0.153006 18.1668 0.308844 18.2726C0.404394 18.3363 0.514731 18.3705 0.627344 18.3705C0.699006 18.3705 0.770669 18.3568 0.838919 18.3295L5.74609 16.3662V4.72046L0.415769 6.85213Z" fill="#040205"/>
<path d="M15.546 10.9791C15.223 11.3386 14.76 11.5456 14.2766 11.5456C13.7931 11.5456 13.3302 11.3386 13.0071 10.9791C12.8911 10.8506 12.7421 10.6811 12.5703 10.4798V18.3706L17.9006 16.2389C18.1168 16.1536 18.2578 15.9432 18.2578 15.7111V7.34937C17.3262 8.92708 16.0806 10.3831 15.546 10.9791Z" fill="#040205"/>
<path d="M9.51612 5.77378L6.88281 4.72046V16.3662L11.4328 18.1862V9.05206C10.706 8.07267 9.94724 6.89308 9.51612 5.77378Z" fill="#040205"/>
</svg>
